<svg xmlns="http://www.w3.org/2000/svg" xmlns:xlink="http://www.w3.org/1999/xlink" width="1080" zoomAndPan="magnify" viewBox="0 0 810 809.999993" height="1080" preserveAspectRatio="xMidYMid meet" version="1.0"><defs><clipPath id="c5945f0189"><path d="M 36 81 L 774 81 L 774 750.757812 L 36 750.757812 Z M 36 81 " clip-rule="nonzero"/></clipPath><clipPath id="3469623072"><path d="M 763.5625 222.523438 C 740.257812 143.390625 665.027344 81.003906 576.070312 81 C 501.382812 81 436.496094 123.140625 403.695312 185.035156 C 370.894531 123.144531 306.015625 81 231.332031 81 C 138.277344 81 56.894531 143.390625 40.914062 233.9375 C 0.394531 463.554688 257.21875 643.285156 404.273438 750.757812 C 540.238281 651.390625 830.195312 448.785156 763.5625 222.523438 Z M 763.5625 222.523438 " clip-rule="nonzero"/></clipPath><clipPath id="c892537292"><path d="M 0.480469 0 L 738 0 L 738 669.757812 L 0.480469 669.757812 Z M 0.480469 0 " clip-rule="nonzero"/></clipPath><clipPath id="cf0f625e4f"><path d="M 727.5625 141.523438 C 704.257812 62.390625 629.027344 0.00390625 540.070312 0 C 465.382812 0 400.496094 42.140625 367.695312 104.035156 C 334.894531 42.144531 270.015625 0 195.332031 0 C 102.277344 0 20.894531 62.390625 4.914062 152.9375 C -35.605469 382.554688 221.21875 562.285156 368.273438 669.757812 C 504.238281 570.390625 794.195312 367.785156 727.5625 141.523438 Z M 727.5625 141.523438 " clip-rule="nonzero"/></clipPath><clipPath id="c4506b21df"><rect x="0" width="738" y="0" height="670"/></clipPath></defs><g clip-path="url(#c5945f0189)"><g clip-path="url(#3469623072)"><g transform="matrix(1, 0, 0, 1, 36, 81)"><g clip-path="url(#c4506b21df)"><g clip-path="url(#c892537292)"><g clip-path="url(#cf0f625e4f)"><path fill="#6b7280" d="M 0.632812 0 L 738.414062 0 L 738.414062 669.757812 L 0.632812 669.757812 Z M 0.632812 0 " fill-opacity="1" fill-rule="nonzero"/></g></g></g></g></g></g></svg>
